<?xml version="1.0" standalone="no"?>
<!DOCTYPE svg PUBLIC "-//W3C//DTD SVG 20010904//EN"
 "http://www.w3.org/TR/2001/REC-SVG-20010904/DTD/svg10.dtd">
<svg version="1.0" xmlns="http://www.w3.org/2000/svg"
 width="600.000000pt" height="300.000000pt" viewBox="0 0 600.000000 300.000000"
 preserveAspectRatio="xMidYMid meet">

<g transform="translate(0.000000,300.000000) scale(0.100000,-0.100000)"
fill="#000000" stroke="none">
<path d="M4580 2015 c-77 -22 -129 -55 -193 -124 -76 -83 -101 -147 -101 -271
-1 -87 2 -101 31 -162 42 -90 110 -160 192 -201 63 -30 71 -32 181 -32 111 0
117 1 178 33 84 44 146 108 185 190 30 63 32 74 32 177 0 104 -2 114 -32 176
-85 172 -291 265 -473 214z m110 -35 c-16 -30 -35 -34 -59 -13 -30 25 -27 29
25 32 43 2 45 1 34 -19z m93 9 c32 -9 37 -14 37 -40 0 -17 -4 -38 -9 -47 -14
-28 -22 -96 -12 -111 10 -15 74 -32 136 -36 38 -2 40 -4 41 -35 1 -25 -4 -34
-25 -43 -68 -29 -86 -72 -57 -139 8 -18 18 -50 21 -70 3 -21 18 -52 33 -69
l26 -32 -38 -33 c-76 -66 -183 -100 -278 -89 -32 4 -56 11 -53 15 3 4 -4 6
-14 3 -30 -8 -137 55 -186 109 -75 84 -109 216 -85 331 13 63 30 76 30 22 0
-27 7 -40 35 -62 31 -25 34 -31 29 -64 -7 -45 5 -69 50 -99 30 -21 35 -31 40
-75 13 -122 16 -133 46 -144 39 -13 72 11 68 49 -1 16 5 37 13 47 18 20 32 77
22 87 -10 10 -33 -15 -33 -37 0 -11 -8 -29 -17 -39 -10 -11 -16 -32 -15 -49 2
-23 -2 -29 -17 -29 -20 0 -27 23 -37 126 -5 47 -10 55 -48 82 -41 30 -42 32
-39 79 3 44 1 51 -32 83 -21 21 -35 43 -35 59 0 13 -7 32 -16 42 -15 17 -14
21 17 64 19 26 55 63 82 82 46 34 49 35 67 18 10 -9 20 -29 22 -44 2 -15 12
-30 26 -36 26 -11 27 -18 7 -35 -8 -7 -15 -16 -15 -21 0 -16 26 -9 45 11 23
25 13 70 -15 70 -19 0 -24 16 -23 67 0 6 -6 9 -13 6 -8 -3 -14 0 -14 6 0 20
26 11 55 -19 40 -41 72 -37 104 13 28 42 23 40 74 26z m152 -77 c75 -61 135
-191 135 -292 0 -58 -32 -166 -60 -200 l-20 -25 -20 23 c-11 13 -22 40 -25 60
-4 20 -13 53 -22 73 -21 52 -14 71 37 95 39 18 46 27 51 58 8 51 -16 80 -68
83 -21 0 -56 5 -78 10 -44 10 -45 16 -19 108 4 17 7 38 5 48 -2 18 -1 18 26 1
15 -10 42 -29 58 -42z"/>
<path d="M4525 1790 c-3 -5 -21 -10 -39 -10 -38 0 -56 -15 -56 -48 0 -33 52
-82 87 -82 20 0 31 -7 38 -22 6 -13 20 -24 33 -26 13 -2 33 -13 44 -24 14 -14
27 -18 44 -14 21 6 24 3 24 -19 0 -14 -5 -34 -12 -45 -17 -27 -2 -37 22 -15
27 25 28 90 1 105 -11 5 -28 10 -39 10 -11 0 -22 7 -26 15 -3 9 -18 15 -35 15
-23 0 -30 5 -33 23 -2 18 -10 23 -45 25 -30 2 -47 10 -58 25 -24 34 -19 47 18
47 33 0 74 30 60 43 -9 10 -21 9 -28 -3z"/>
<path d="M4327 1695 c-17 -99 5 -202 60 -283 43 -62 116 -122 121 -97 2 8 -10
33 -27 54 -47 60 -82 145 -88 214 -4 46 -12 69 -28 87 -13 14 -25 34 -27 45
-3 13 -6 6 -11 -20z"/>
<path d="M5389 2005 c-105 -33 -188 -114 -230 -222 -30 -77 -33 -222 -6 -304
41 -124 145 -207 287 -230 118 -19 215 4 308 73 l52 39 0 165 0 165 -152 -3
-153 -3 0 -60 0 -60 93 -3 93 -3 -3 -67 -3 -67 -45 -25 c-37 -21 -58 -25 -120
-24 -83 0 -134 20 -182 71 -85 89 -82 266 6 370 76 90 243 102 342 24 l25 -20
41 45 c40 43 40 45 23 64 -10 11 -48 35 -83 52 -56 28 -77 33 -156 35 -60 2
-107 -2 -137 -12z"/>
<path d="M180 1630 l0 -370 255 0 255 0 0 65 0 65 -185 0 -185 0 0 305 0 305
-70 0 -70 0 0 -370z"/>
<path d="M1031 1978 c-5 -13 -77 -177 -160 -366 -83 -189 -151 -345 -151 -348
0 -2 33 -4 73 -4 l73 0 30 70 29 70 191 0 191 0 31 -70 31 -70 70 0 c39 0 71
3 71 8 0 4 -71 169 -158 367 l-158 360 -77 3 c-72 3 -78 1 -86 -20z m156 -295
c34 -81 61 -148 59 -150 -2 -2 -62 -2 -133 -1 l-130 3 65 153 c36 83 68 150
70 147 3 -3 34 -71 69 -152z"/>
<path d="M1580 1631 l0 -371 70 0 70 0 0 125 0 125 65 0 65 0 106 -125 106
-125 147 0 147 0 30 70 29 70 191 0 191 0 31 -70 31 -70 70 0 c39 0 71 3 71 8
0 4 -71 169 -158 367 l-158 360 -77 0 -78 0 -154 -350 c-84 -192 -157 -350
-162 -351 -4 -2 -37 31 -73 73 -36 42 -80 93 -98 114 l-33 38 48 21 c59 26 80
45 105 94 45 89 29 221 -36 288 -66 68 -86 73 -328 76 l-218 3 0 -370z m436
205 c28 -28 34 -42 34 -75 0 -23 -7 -56 -16 -72 -24 -46 -66 -59 -199 -59
l-115 0 0 120 0 120 131 0 131 0 34 -34z m661 -153 c34 -81 61 -148 59 -150
-2 -2 -62 -2 -133 -1 l-130 3 65 153 c36 83 68 150 70 147 3 -3 34 -71 69
-152z"/>
<path d="M3050 1629 l0 -371 223 4 c220 3 223 3 279 31 69 34 97 75 105 152 8
72 -16 136 -64 172 l-34 26 26 25 c73 67 72 195 -1 268 -56 55 -102 64 -331
64 l-203 0 0 -371z m390 238 c43 -15 72 -64 61 -105 -12 -47 -59 -62 -198 -62
l-123 0 0 90 0 90 113 -1 c61 0 128 -5 147 -12z m37 -313 c45 -34 59 -65 44
-102 -20 -48 -69 -62 -216 -62 l-125 0 0 96 0 96 134 -4 c118 -3 138 -6 163
-24z"/>
<path d="M3760 1630 l0 -370 255 0 255 0 0 65 0 65 -185 0 -185 0 0 305 0 305
-70 0 -70 0 0 -370z"/>
</g>
</svg>
